<svg xmlns="http://www.w3.org/2000/svg" viewBox="-130 -28 125 47.063">
  <defs>
    <style>
      .cls-1 {
        fill: #3d3d3d;
      }

      .cls-2 {
        fill: #80ffff;
      }
    </style>
  </defs>
  <g id="pwa-logo" transform="translate(-314 -55)">
    <path id="Path_1" data-name="Path 1" class="cls-1" d="M1436.62,38.634l3.611-9.132h10.427l-4.948-13.852L1451.9,0l17.725,47.063h-13.072l-3.029-8.429Z" transform="translate(-1160.623 26.999)"/>
    <path id="Path_2" data-name="Path 2" class="cls-2" d="M550.522,47.064,569.5,0h-12.58l-12.98,30.413L534.707,0h-9.67l-9.911,30.413-6.989-13.859-6.325,19.487,6.422,11.022h12.38L529.57,19.79l8.539,27.274Z" transform="translate(-285.678 26.998)"/>
    <path id="Path_3" data-name="Path 3" class="cls-1" d="M11.941,30.907H19.69a22.846,22.846,0,0,0,6.27-.786l2-6.174,5.6-17.254A13.787,13.787,0,0,0,32.1,4.775Q27.79,0,19.481,0H0V47.063H11.941ZM22.2,10.828a6.155,6.155,0,0,1,1.685,4.538A6.623,6.623,0,0,1,22.4,19.91q-1.624,1.866-5.982,1.866H11.941V9.132h4.511Q20.513,9.132,22.2,10.828Z" transform="translate(184 27)"/>
  </g>
</svg>
